<?xml version="1.0" encoding="UTF-8" standalone="no"?>
<!-- Uploaded to: SVG Repo, www.svgrepo.com, Generator: SVG Repo Mixer Tools -->

<svg
   width="85.396431"
   height="90"
   viewBox="0 0 109.30743 115.2"
   class="icon"
   version="1.1"
   id="svg1524"
   sodipodi:docname="laptop-s.svg"
   inkscape:version="1.2.2 (b0a8486541, 2022-12-01)"
   xmlns:inkscape="http://www.inkscape.org/namespaces/inkscape"
   xmlns:sodipodi="http://sodipodi.sourceforge.net/DTD/sodipodi-0.dtd"
   xmlns="http://www.w3.org/2000/svg"
   xmlns:svg="http://www.w3.org/2000/svg">
  <defs
     id="defs1528" />
  <sodipodi:namedview
     id="namedview1526"
     pagecolor="#ffffff"
     bordercolor="#000000"
     borderopacity="0.25"
     inkscape:showpageshadow="2"
     inkscape:pageopacity="0.0"
     inkscape:pagecheckerboard="0"
     inkscape:deskcolor="#d1d1d1"
     showgrid="false"
     showguides="false"
     inkscape:zoom="1.005"
     inkscape:cx="379.10448"
     inkscape:cy="400.49751"
     inkscape:window-width="1920"
     inkscape:window-height="991"
     inkscape:window-x="-9"
     inkscape:window-y="-9"
     inkscape:window-maximized="1"
     inkscape:current-layer="svg1524" />
  <path
     d="m 109.30743,41.238781 c 0,-3.186813 -1.94047,-6.894229 -4.33046,-8.274112 L 50.167494,1.3201855 c -2.390233,-1.3798826 -4.330462,0.087138 -4.330462,3.2737033 V 50.785642 c 0,3.186813 1.940229,6.894477 4.330462,8.274359 l 54.809476,31.644236 c 2.38999,1.379883 4.33046,-0.08713 4.33046,-3.273703 z"
     fill="#5d7bc1"
     id="path1312"
     style="stroke-width:0.112576" />
  <path
     d="M 48.711582,0.47966665 C 47.707403,-0.10018028 46.185829,-0.16312652 45.315935,0.33896304 L 43.740055,1.2488462 C 43.249321,1.5322281 43.311033,2.027653 43.87755,2.354727 l 62.033,35.814987 c 2.23027,-1.287807 1.95011,-3.540299 -0.62526,-5.027067 z"
     fill="#5d7bc1"
     id="path1314"
     style="stroke-width:0.112576" />
  <path
     d="m 108.81374,40.121545 c 0,-2.754828 -1.67734,-4.022889 -3.74346,-2.82987 -0.18785,0.108366 -0.34015,0.399648 -0.34015,0.650199 v 53.368623 c 0,0.751407 0.4574,1.097241 1.02071,0.771895 l 1.96022,-1.1318 c 0.60873,-0.351266 1.10268,-1.295213 1.10268,-2.106604 z"
     fill="#5d7bc1"
     id="path1316"
     style="stroke-width:0.112576" />
  <path
     d="m 107.22206,40.55427 c 0,-2.136226 -1.30089,-4.621248 -2.90294,-5.54619 L 46.344059,1.5359308 C 44.055281,0.21455139 42.197253,1.6193656 42.197253,4.6709056 V 48.902682 c 0,3.05154 1.858028,6.601714 4.146806,7.923094 l 56.731191,32.75382 c 2.28853,1.321379 4.14681,-0.08343 4.14681,-3.134975 z"
     fill="#4762af"
     id="path1318"
     style="stroke-width:0.112576" />
  <path
     d="m 105.47067,39.44123 c 0,-0.841999 -0.5127,-1.821493 -1.14439,-2.186089 L 44.936776,2.9664174 C 44.305338,2.6018223 43.792634,2.9893748 43.792634,3.8313741 V 51.632085 c 0,0.842001 0.512704,1.821741 1.144142,2.186337 l 59.389504,34.288477 c 0.63169,0.364594 1.14439,-0.02295 1.14439,-0.864957 z"
     fill="#ffffff"
     id="path1320"
     style="stroke-width:0.112576" />
  <path
     d="m 43.240434,52.657988 c -1.45838,-0.841754 -3.66792,-0.933334 -4.930797,-0.204391 L 3.0690662,72.799829 c -4.5467,2.624986 -3.97549304,7.217107 1.274478,10.248405 L 57.619353,113.80678 c 2.916761,1.684 7.335347,1.86716 9.861347,0.40878 l 38.90183,-22.459995 c 1.26312,-0.729191 1.10439,-2.004656 -0.35399,-2.846656 z"
     fill="#5d7bc1"
     id="path1322"
     style="stroke-width:0.112576" />
  <path
     d="M 45.572411,51.257123 C 44.140196,50.430181 41.970399,50.340081 40.729986,51.056189 L 4.3228092,72.07607 c -3.47291004,2.00515 -3.036728,5.512865 0.973571,7.828056 L 58.676605,110.72314 c 2.864429,1.6539 7.204024,1.83385 9.684603,0.40163 L 106.56643,89.066892 c 1.24041,-0.716108 1.08465,-1.968863 -0.34757,-2.795805 z M 81.3289,23.977413 69.077809,16.904219 v 0.976285 c 0,0.808182 0.491969,1.748428 1.098227,2.098458 l 10.054634,5.805134 c 0.60626,0.349785 1.09823,-0.02221 1.09823,-0.830398 z"
     fill="#4762af"
     id="path1324"
     style="stroke-width:0.112576" />
  <path
     d="M 37.348163,96.891742 25.09683,89.818298 v 1.916038 c 0,1.586247 0.965918,3.431439 2.15548,4.118416 l 7.940373,4.584218 c 1.189562,0.68698 2.15548,-0.0432 2.15548,-1.629445 z m 6.125543,-39.383431 -4.083613,2.357897 4.083613,2.357649 4.08386,-2.357649 z"
     fill="#4762af"
     id="path1326"
     style="stroke-width:0.112576" />
  <path
     d="m 43.473706,57.793422 -3.589916,2.072786 3.589916,2.072539 3.590163,-2.072539 z"
     fill="#5d7bc1"
     id="path1328"
     style="stroke-width:0.112576" />
  <path
     d="m 39.390093,59.866208 -4.08386,2.357649 4.08386,2.357896 4.083613,-2.357896 z"
     fill="#4762af"
     id="path1330"
     style="stroke-width:0.112576" />
  <path
     d="m 39.390093,60.151071 -3.590164,2.072786 3.590164,2.072786 3.589916,-2.072786 z"
     fill="#5d7bc1"
     id="path1332"
     style="stroke-width:0.112576" />
  <path
     d="m 39.390093,64.581753 -4.08386,2.357648 4.08386,2.35765 4.083613,-2.35765 z"
     fill="#4762af"
     id="path1334"
     style="stroke-width:0.112576" />
  <path
     d="m 39.390093,64.866616 -3.590164,2.072785 3.590164,2.072786 3.589916,-2.072786 z"
     fill="#5d7bc1"
     id="path1336"
     style="stroke-width:0.112576" />
  <path
     d="m 39.390093,69.297051 -4.08386,2.357896 4.08386,2.357648 4.083613,-2.357648 z"
     fill="#4762af"
     id="path1338"
     style="stroke-width:0.112576" />
  <path
     d="m 39.390093,69.582161 -3.590164,2.072786 3.590164,2.072786 3.589916,-2.072786 z"
     fill="#5d7bc1"
     id="path1340"
     style="stroke-width:0.112576" />
  <path
     d="m 39.390093,74.012595 -4.08386,2.357896 4.08386,2.35765 4.083613,-2.35765 z"
     fill="#4762af"
     id="path1342"
     style="stroke-width:0.112576" />
  <path
     d="m 39.390093,74.297705 -3.590164,2.072786 3.590164,2.072539 3.589916,-2.072539 z"
     fill="#5d7bc1"
     id="path1344"
     style="stroke-width:0.112576" />
  <path
     d="m 47.557566,59.866208 -4.08386,2.357649 4.08386,2.357896 4.083613,-2.357896 z"
     fill="#4762af"
     id="path1346"
     style="stroke-width:0.112576" />
  <path
     d="m 47.557566,60.151071 -3.590164,2.072786 3.590164,2.072786 3.589916,-2.072786 z"
     fill="#5d7bc1"
     id="path1348"
     style="stroke-width:0.112576" />
  <path
     d="m 43.473706,62.223857 -4.083613,2.357896 4.083613,2.357648 4.08386,-2.357648 z"
     fill="#4762af"
     id="path1350"
     style="stroke-width:0.112576" />
  <path
     d="m 43.473706,62.508966 -3.589916,2.072787 3.589916,2.072539 3.590163,-2.072539 z"
     fill="#5d7bc1"
     id="path1352"
     style="stroke-width:0.112576" />
  <path
     d="m 43.473706,66.939401 -4.083613,2.35765 4.083613,2.357896 4.08386,-2.357896 z"
     fill="#4762af"
     id="path1354"
     style="stroke-width:0.112576" />
  <path
     d="m 43.473706,67.224512 -3.589916,2.072539 3.589916,2.072786 3.590163,-2.072786 z"
     fill="#5d7bc1"
     id="path1356"
     style="stroke-width:0.112576" />
  <path
     d="m 43.473706,71.654947 -4.083613,2.357648 4.083613,2.357896 4.08386,-2.357896 z"
     fill="#4762af"
     id="path1358"
     style="stroke-width:0.112576" />
  <path
     d="m 43.473706,71.939809 -3.589916,2.072786 3.589916,2.072787 3.590163,-2.072787 z"
     fill="#5d7bc1"
     id="path1360"
     style="stroke-width:0.112576" />
  <path
     d="m 43.473706,76.370491 -4.083613,2.35765 4.083613,2.357648 4.08386,-2.357648 z"
     fill="#4762af"
     id="path1362"
     style="stroke-width:0.112576" />
  <path
     d="m 43.473706,76.655355 -3.589916,2.072786 3.589916,2.072786 3.590163,-2.072786 z"
     fill="#5d7bc1"
     id="path1364"
     style="stroke-width:0.112576" />
  <path
     d="m 51.641179,62.223857 -4.083613,2.357896 4.083613,2.357648 4.083859,-2.357648 z"
     fill="#4762af"
     id="path1366"
     style="stroke-width:0.112576" />
  <path
     d="m 51.641179,62.508966 -3.589916,2.072787 3.589916,2.072539 3.590163,-2.072539 z"
     fill="#5d7bc1"
     id="path1368"
     style="stroke-width:0.112576" />
  <path
     d="m 47.557566,64.581753 -4.08386,2.357648 4.08386,2.35765 4.083613,-2.35765 z"
     fill="#4762af"
     id="path1370"
     style="stroke-width:0.112576" />
  <path
     d="m 47.557566,64.866616 -3.590164,2.072785 3.590164,2.072786 3.589916,-2.072786 z"
     fill="#5d7bc1"
     id="path1372"
     style="stroke-width:0.112576" />
  <path
     d="m 47.557566,69.297051 -4.08386,2.357896 4.08386,2.357648 4.083613,-2.357648 z"
     fill="#4762af"
     id="path1374"
     style="stroke-width:0.112576" />
  <path
     d="m 47.557566,69.582161 -3.590164,2.072786 3.590164,2.072786 3.589916,-2.072786 z"
     fill="#5d7bc1"
     id="path1376"
     style="stroke-width:0.112576" />
  <path
     d="m 47.557566,74.012595 -4.08386,2.357896 4.08386,2.35765 4.083613,-2.35765 z"
     fill="#4762af"
     id="path1378"
     style="stroke-width:0.112576" />
  <path
     d="m 47.557566,74.297705 -3.590164,2.072786 3.590164,2.072539 3.589916,-2.072539 z"
     fill="#5d7bc1"
     id="path1380"
     style="stroke-width:0.112576" />
  <path
     d="m 47.557566,78.728141 -4.08386,2.357648 4.08386,2.357896 4.083613,-2.357896 z"
     fill="#4762af"
     id="path1382"
     style="stroke-width:0.112576" />
  <path
     d="m 47.557566,79.01325 -3.590164,2.072539 3.590164,2.072787 3.589916,-2.072787 z"
     fill="#5d7bc1"
     id="path1384"
     style="stroke-width:0.112576" />
  <path
     d="m 55.725038,64.581753 -4.083859,2.357648 4.083859,2.35765 4.083613,-2.35765 z"
     fill="#4762af"
     id="path1386"
     style="stroke-width:0.112576" />
  <path
     d="m 55.725038,64.866616 -3.590162,2.072785 3.590162,2.072786 3.589917,-2.072786 z"
     fill="#5d7bc1"
     id="path1388"
     style="stroke-width:0.112576" />
  <path
     d="m 51.641179,66.939401 -4.083613,2.35765 4.083613,2.357896 4.083859,-2.357896 z"
     fill="#4762af"
     id="path1390"
     style="stroke-width:0.112576" />
  <path
     d="m 51.641179,67.224512 -3.589916,2.072539 3.589916,2.072786 3.590163,-2.072786 z"
     fill="#5d7bc1"
     id="path1392"
     style="stroke-width:0.112576" />
  <path
     d="m 51.641179,71.654947 -4.083613,2.357648 4.083613,2.357896 4.083859,-2.357896 z"
     fill="#4762af"
     id="path1394"
     style="stroke-width:0.112576" />
  <path
     d="m 51.641179,71.939809 -3.589916,2.072786 3.589916,2.072787 3.590163,-2.072787 z"
     fill="#5d7bc1"
     id="path1396"
     style="stroke-width:0.112576" />
  <path
     d="m 51.641179,76.370491 -4.083613,2.35765 4.083613,2.357648 4.083859,-2.357648 z"
     fill="#4762af"
     id="path1398"
     style="stroke-width:0.112576" />
  <path
     d="m 51.641179,76.655355 -3.589916,2.072786 3.589916,2.072786 3.590163,-2.072786 z"
     fill="#5d7bc1"
     id="path1400"
     style="stroke-width:0.112576" />
  <path
     d="m 51.641179,81.085789 -4.083613,2.357896 4.083613,2.35765 4.083859,-2.35765 z"
     fill="#4762af"
     id="path1402"
     style="stroke-width:0.112576" />
  <path
     d="m 51.641179,81.370899 -3.589916,2.072786 3.589916,2.072786 3.590163,-2.072786 z"
     fill="#5d7bc1"
     id="path1404"
     style="stroke-width:0.112576" />
  <path
     d="m 59.808651,66.939401 -4.083613,2.35765 4.083613,2.357896 4.083861,-2.357896 z"
     fill="#4762af"
     id="path1406"
     style="stroke-width:0.112576" />
  <path
     d="m 59.808651,67.224512 -3.589916,2.072539 3.589916,2.072786 3.590164,-2.072786 z"
     fill="#5d7bc1"
     id="path1408"
     style="stroke-width:0.112576" />
  <path
     d="m 55.725038,69.297051 -4.083859,2.357896 4.083859,2.357648 4.083613,-2.357648 z"
     fill="#4762af"
     id="path1410"
     style="stroke-width:0.112576" />
  <path
     d="m 55.725038,69.582161 -3.590162,2.072786 3.590162,2.072786 3.589917,-2.072786 z"
     fill="#5d7bc1"
     id="path1412"
     style="stroke-width:0.112576" />
  <path
     d="m 55.725038,74.012595 -4.083859,2.357896 4.083859,2.35765 4.083613,-2.35765 z"
     fill="#4762af"
     id="path1414"
     style="stroke-width:0.112576" />
  <path
     d="m 55.725038,74.297705 -3.590162,2.072786 3.590162,2.072539 3.589917,-2.072539 z"
     fill="#5d7bc1"
     id="path1416"
     style="stroke-width:0.112576" />
  <path
     d="m 55.725038,78.728141 -4.083859,2.357648 4.083859,2.357896 4.083613,-2.357896 z"
     fill="#4762af"
     id="path1418"
     style="stroke-width:0.112576" />
  <path
     d="m 55.725038,79.01325 -3.590162,2.072539 3.590162,2.072787 3.589917,-2.072787 z"
     fill="#5d7bc1"
     id="path1420"
     style="stroke-width:0.112576" />
  <path
     d="m 55.725038,83.443685 -4.083859,2.35765 4.083859,2.357896 4.083613,-2.357896 z"
     fill="#4762af"
     id="path1422"
     style="stroke-width:0.112576" />
  <path
     d="m 55.725038,83.728795 -3.590162,2.07254 3.590162,2.072785 3.589917,-2.072785 z"
     fill="#5d7bc1"
     id="path1424"
     style="stroke-width:0.112576" />
  <path
     d="m 63.892512,69.297051 -4.083861,2.357896 4.083861,2.357648 4.083859,-2.357648 z"
     fill="#4762af"
     id="path1426"
     style="stroke-width:0.112576" />
  <path
     d="m 63.892512,69.582161 -3.590163,2.072786 3.590163,2.072786 3.590162,-2.072786 z"
     fill="#5d7bc1"
     id="path1428"
     style="stroke-width:0.112576" />
  <path
     d="m 59.808651,71.654947 -4.083613,2.357648 4.083613,2.357896 4.083861,-2.357896 z"
     fill="#4762af"
     id="path1430"
     style="stroke-width:0.112576" />
  <path
     d="m 59.808651,71.939809 -3.589916,2.072786 3.589916,2.072787 3.590164,-2.072787 z"
     fill="#5d7bc1"
     id="path1432"
     style="stroke-width:0.112576" />
  <path
     d="m 59.808651,76.370491 -4.083613,2.35765 4.083613,2.357648 4.083861,-2.357648 z"
     fill="#4762af"
     id="path1434"
     style="stroke-width:0.112576" />
  <path
     d="m 59.808651,76.655355 -3.589916,2.072786 3.589916,2.072786 3.590164,-2.072786 z"
     fill="#5d7bc1"
     id="path1436"
     style="stroke-width:0.112576" />
  <path
     d="m 59.808651,81.085789 -4.083613,2.357896 4.083613,2.35765 4.083861,-2.35765 z"
     fill="#4762af"
     id="path1438"
     style="stroke-width:0.112576" />
  <path
     d="m 59.808651,81.370899 -3.589916,2.072786 3.589916,2.072786 3.590164,-2.072786 z"
     fill="#5d7bc1"
     id="path1440"
     style="stroke-width:0.112576" />
  <path
     d="m 59.808651,85.801335 -4.083613,2.357896 4.083613,2.357648 4.083861,-2.357648 z"
     fill="#4762af"
     id="path1442"
     style="stroke-width:0.112576" />
  <path
     d="m 59.808651,86.086445 -3.589916,2.072786 3.589916,2.072785 3.590164,-2.072785 z"
     fill="#5d7bc1"
     id="path1444"
     style="stroke-width:0.112576" />
  <path
     d="m 67.976371,71.654947 -4.083859,2.357648 4.083859,2.357896 4.083615,-2.357896 z"
     fill="#4762af"
     id="path1446"
     style="stroke-width:0.112576" />
  <path
     d="m 67.976371,71.939809 -3.590163,2.072786 3.590163,2.072787 3.589919,-2.072787 z"
     fill="#5d7bc1"
     id="path1448"
     style="stroke-width:0.112576" />
  <path
     d="m 63.892512,74.012595 -4.083861,2.357896 4.083861,2.35765 4.083859,-2.35765 z"
     fill="#4762af"
     id="path1450"
     style="stroke-width:0.112576" />
  <path
     d="m 63.892512,74.297705 -3.590163,2.072786 3.590163,2.072539 3.590162,-2.072539 z"
     fill="#5d7bc1"
     id="path1452"
     style="stroke-width:0.112576" />
  <path
     d="m 63.892512,78.728141 -4.083861,2.357648 4.083861,2.357896 4.083859,-2.357896 z"
     fill="#4762af"
     id="path1454"
     style="stroke-width:0.112576" />
  <path
     d="m 63.892512,79.01325 -3.590163,2.072539 3.590163,2.072787 3.590162,-2.072787 z"
     fill="#5d7bc1"
     id="path1456"
     style="stroke-width:0.112576" />
  <path
     d="m 63.892512,83.443685 -4.083861,2.35765 4.083861,2.357896 4.083859,-2.357896 z"
     fill="#4762af"
     id="path1458"
     style="stroke-width:0.112576" />
  <path
     d="m 63.892512,83.728795 -3.590163,2.07254 3.590163,2.072785 3.590162,-2.072785 z"
     fill="#5d7bc1"
     id="path1460"
     style="stroke-width:0.112576" />
  <path
     d="m 72.059986,74.012595 -4.083615,2.357896 4.083615,2.35765 4.083854,-2.35765 z"
     fill="#4762af"
     id="path1462"
     style="stroke-width:0.112576" />
  <path
     d="m 72.059986,74.297705 -3.589918,2.072786 3.589918,2.072539 3.590164,-2.072539 z"
     fill="#5d7bc1"
     id="path1464"
     style="stroke-width:0.112576" />
  <path
     d="m 67.976371,76.370491 -4.083859,2.35765 4.083859,2.357648 4.083615,-2.357648 z"
     fill="#4762af"
     id="path1466"
     style="stroke-width:0.112576" />
  <path
     d="m 67.976371,76.655355 -3.590163,2.072786 3.590163,2.072786 3.589919,-2.072786 z"
     fill="#5d7bc1"
     id="path1468"
     style="stroke-width:0.112576" />
  <path
     d="m 67.976371,81.085789 -4.083859,2.357896 4.083859,2.35765 4.083615,-2.35765 z"
     fill="#4762af"
     id="path1470"
     style="stroke-width:0.112576" />
  <path
     d="m 67.976371,81.370899 -3.590163,2.072786 3.590163,2.072786 3.589919,-2.072786 z"
     fill="#5d7bc1"
     id="path1472"
     style="stroke-width:0.112576" />
  <path
     d="m 67.976371,85.801335 -4.083859,2.357896 4.083859,2.357648 4.083615,-2.357648 z"
     fill="#4762af"
     id="path1474"
     style="stroke-width:0.112576" />
  <path
     d="m 67.976371,86.086445 -3.590163,2.072786 3.590163,2.072785 3.589919,-2.072785 z"
     fill="#5d7bc1"
     id="path1476"
     style="stroke-width:0.112576" />
  <path
     d="m 76.14384,76.370491 -4.083854,2.35765 4.083854,2.357648 4.08362,-2.357648 z"
     fill="#4762af"
     id="path1478"
     style="stroke-width:0.112576" />
  <path
     d="m 76.14384,76.655355 -3.590158,2.072786 3.590158,2.072786 3.58992,-2.072786 z"
     fill="#5d7bc1"
     id="path1480"
     style="stroke-width:0.112576" />
  <path
     d="m 72.059986,78.728141 -4.083615,2.357648 4.083615,2.357896 4.083854,-2.357896 z"
     fill="#4762af"
     id="path1482"
     style="stroke-width:0.112576" />
  <path
     d="m 72.059986,79.01325 -3.589918,2.072539 3.589918,2.072787 3.590164,-2.072787 z"
     fill="#5d7bc1"
     id="path1484"
     style="stroke-width:0.112576" />
  <path
     d="m 72.059986,83.443685 -4.083615,2.35765 4.083615,2.357896 4.083854,-2.357896 z"
     fill="#4762af"
     id="path1486"
     style="stroke-width:0.112576" />
  <path
     d="m 72.059986,83.728795 -3.589918,2.07254 3.589918,2.072785 3.590164,-2.072785 z"
     fill="#5d7bc1"
     id="path1488"
     style="stroke-width:0.112576" />
  <path
     d="m 80.22746,78.728141 -4.08362,2.357648 4.08362,2.357896 4.08386,-2.357896 z"
     fill="#4762af"
     id="path1490"
     style="stroke-width:0.112576" />
  <path
     d="m 80.22746,79.01325 -3.58992,2.072539 3.58992,2.072787 3.59016,-2.072787 z"
     fill="#5d7bc1"
     id="path1492"
     style="stroke-width:0.112576" />
  <path
     d="m 76.14384,81.085789 -4.083854,2.357896 4.083854,2.35765 4.08362,-2.35765 z"
     fill="#4762af"
     id="path1494"
     style="stroke-width:0.112576" />
  <path
     d="m 76.14384,81.370899 -3.590158,2.072786 3.590158,2.072786 3.58992,-2.072786 z"
     fill="#5d7bc1"
     id="path1496"
     style="stroke-width:0.112576" />
  <path
     d="m 76.14384,85.801335 -4.083854,2.357896 4.083854,2.357648 4.08362,-2.357648 z"
     fill="#4762af"
     id="path1498"
     style="stroke-width:0.112576" />
  <path
     d="m 76.14384,86.086445 -3.590158,2.072786 3.590158,2.072785 3.58992,-2.072785 z"
     fill="#5d7bc1"
     id="path1500"
     style="stroke-width:0.112576" />
  <path
     d="m 84.31132,81.085789 -4.08386,2.357896 4.08386,2.35765 4.08361,-2.35765 z"
     fill="#4762af"
     id="path1502"
     style="stroke-width:0.112576" />
  <path
     d="m 84.31132,81.370899 -3.59016,2.072786 3.59016,2.072786 3.58991,-2.072786 z"
     fill="#5d7bc1"
     id="path1504"
     style="stroke-width:0.112576" />
  <path
     d="m 80.22746,83.443685 -4.08362,2.35765 4.08362,2.357896 4.08386,-2.357896 z"
     fill="#4762af"
     id="path1506"
     style="stroke-width:0.112576" />
  <path
     d="m 80.22746,83.728795 -3.58992,2.07254 3.58992,2.072785 3.59016,-2.072785 z"
     fill="#5d7bc1"
     id="path1508"
     style="stroke-width:0.112576" />
  <path
     d="m 88.39493,83.443685 -4.08361,2.35765 4.08361,2.357896 4.08386,-2.357896 z"
     fill="#4762af"
     id="path1510"
     style="stroke-width:0.112576" />
  <path
     d="m 88.39493,83.728795 -3.58992,2.07254 3.58992,2.072785 3.59016,-2.072785 z"
     fill="#5d7bc1"
     id="path1512"
     style="stroke-width:0.112576" />
  <path
     d="m 92.47879,85.801335 -4.08386,2.357896 4.08386,2.357648 4.08361,-2.357648 z"
     fill="#4762af"
     id="path1514"
     style="stroke-width:0.112576" />
  <path
     d="m 92.47879,86.086445 -3.59017,2.072786 3.59017,2.072785 3.58992,-2.072785 z"
     fill="#5d7bc1"
     id="path1516"
     style="stroke-width:0.112576" />
  <path
     d="m 84.31132,85.801335 -4.08386,2.357896 4.08386,2.357648 4.08361,-2.357648 z"
     fill="#4762af"
     id="path1518"
     style="stroke-width:0.112576" />
  <path
     d="m 84.31132,86.086445 -3.59016,2.072786 3.59016,2.072785 3.58991,-2.072785 z"
     fill="#5d7bc1"
     id="path1520"
     style="stroke-width:0.112576" />
  <path
     d="M 34.879432,80.839435 C 33.977941,80.319078 32.61213,80.262303 31.831348,80.713049 l -12.73096,7.350404 24.502419,14.146387 12.731207,-7.350157 c 0.780781,-0.450745 0.682535,-1.239179 -0.218955,-1.759782 z"
     fill="#5d7bc1"
     id="path1522"
     style="stroke-width:0.112576" />
</svg>
