<?xml version="1.0" encoding="UTF-8" standalone="no"?>
<!-- Uploaded to: SVG Repo, www.svgrepo.com, Generator: SVG Repo Mixer Tools -->

<svg
   fill="#000000"
   width="54"
   height="90"
   viewBox="0 0 1.62 2.7"
   id="smart-watch"
   data-name="Flat Color"
   class="icon flat-color"
   version="1.1"
   sodipodi:docname="smart-watch-s.svg"
   inkscape:version="1.2.2 (b0a8486541, 2022-12-01)"
   xmlns:inkscape="http://www.inkscape.org/namespaces/inkscape"
   xmlns:sodipodi="http://sodipodi.sourceforge.net/DTD/sodipodi-0.dtd"
   xmlns="http://www.w3.org/2000/svg"
   xmlns:svg="http://www.w3.org/2000/svg">
  <defs
     id="defs1768" />
  <sodipodi:namedview
     id="namedview1766"
     pagecolor="#ffffff"
     bordercolor="#000000"
     borderopacity="0.25"
     inkscape:showpageshadow="2"
     inkscape:pageopacity="0.0"
     inkscape:pagecheckerboard="0"
     inkscape:deskcolor="#d1d1d1"
     showgrid="false"
     inkscape:zoom="1.005"
     inkscape:cx="200"
     inkscape:cy="333.83085"
     inkscape:window-width="1920"
     inkscape:window-height="991"
     inkscape:window-x="-9"
     inkscape:window-y="-9"
     inkscape:window-maximized="1"
     inkscape:current-layer="smart-watch" />
  <path
     id="secondary"
     d="M 1.485,0.27 V 0.675 A 0.135,0.135 0 0 1 1.35,0.81 H 0.27 A 0.135,0.135 0 0 1 0.135,0.675 V 0.27 A 0.27,0.27 0 0 1 0.405,0 h 0.81 a 0.27,0.27 0 0 1 0.27,0.27 z M 1.35,1.89 H 0.27 A 0.135,0.135 0 0 0 0.135,2.025 V 2.43 a 0.27,0.27 0 0 0 0.27,0.27 h 0.81 A 0.27,0.27 0 0 0 1.485,2.43 V 2.025 A 0.135,0.135 0 0 0 1.35,1.89 Z"
     style="fill:#2ca9bc;stroke-width:0.135" />
  <rect
     id="primary"
     x="0"
     y="0.53999996"
     width="1.62"
     height="1.62"
     rx="0.27000001"
     style="fill:#000000;stroke-width:0.135" />
</svg>
