<?xml version="1.0" encoding="UTF-8" standalone="no"?>
<!-- Uploaded to: SVG Repo, www.svgrepo.com, Generator: SVG Repo Mixer Tools -->

<svg
   width="127.2914"
   height="90.000008"
   viewBox="0 0 5.7281132 4.0500003"
   aria-hidden="true"
   role="img"
   class="iconify iconify--twemoji"
   preserveAspectRatio="xMidYMid"
   version="1.1"
   id="svg1837"
   sodipodi:docname="video-game-s.svg"
   inkscape:version="1.2.2 (b0a8486541, 2022-12-01)"
   xmlns:inkscape="http://www.inkscape.org/namespaces/inkscape"
   xmlns:sodipodi="http://sodipodi.sourceforge.net/DTD/sodipodi-0.dtd"
   xmlns="http://www.w3.org/2000/svg"
   xmlns:svg="http://www.w3.org/2000/svg">
  <defs
     id="defs1841" />
  <sodipodi:namedview
     id="namedview1839"
     pagecolor="#ffffff"
     bordercolor="#000000"
     borderopacity="0.25"
     inkscape:showpageshadow="2"
     inkscape:pageopacity="0.0"
     inkscape:pagecheckerboard="0"
     inkscape:deskcolor="#d1d1d1"
     showgrid="false"
     inkscape:zoom="1.005"
     inkscape:cx="398.00995"
     inkscape:cy="244.27861"
     inkscape:window-width="1920"
     inkscape:window-height="991"
     inkscape:window-x="-9"
     inkscape:window-y="-9"
     inkscape:window-maximized="1"
     inkscape:current-layer="svg1837" />
  <path
     fill="#31373d"
     d="m 0.32880649,1.2488247 -6.4001e-4,-3.2e-4 C 0.32816648,1.2485047 0,3.2352644 0,3.5216694 c 0,0.291846 0.21488424,0.528331 0.48000947,0.528331 0.10880215,0 0.20800411,-0.04128 0.2884857,-0.108482 L 2.3950873,2.5114097 Z m 5.07050011,0 6.4e-4,-3.2e-4 c 0,0 0.3281665,1.9867597 0.3281665,2.2731647 0,0.291846 -0.2148843,0.528331 -0.4800095,0.528331 -0.1088022,0 -0.2080041,-0.04128 -0.2884857,-0.108482 L 3.3330258,2.5114097 Z"
     id="path1809"
     style="stroke-width:0.160003" />
  <g
     fill="#14171a"
     id="g1817"
     transform="matrix(0.16000316,0,0,0.16000316,-0.01200024,-1.1281822)">
    <circle
       cx="25.975"
       cy="15.551"
       r="8.5"
       id="circle1811" />
    <circle
       cx="9.9750004"
       cy="15.551"
       r="8.5"
       id="circle1813" />
    <path
       d="m 9.975,7.051 h 16 v 16.87 h -16 z"
       id="path1815" />
  </g>
  <circle
     fill="#14171a"
     cx="2.0800409"
     cy="2.6000519"
     r="0.80001581"
     id="circle1819"
     style="stroke-width:0.160003" />
  <circle
     fill="#14171a"
     cx="3.648072"
     cy="2.6000519"
     r="0.80001581"
     id="circle1821"
     style="stroke-width:0.160003" />
  <circle
     fill="#67757f"
     cx="3.648072"
     cy="2.6000519"
     r="0.48000947"
     id="circle1823"
     style="stroke-width:0.160003" />
  <circle
     fill="#67757f"
     cx="2.0800409"
     cy="2.6000519"
     r="0.48000947"
     id="circle1825"
     style="stroke-width:0.160003" />
  <circle
     fill="#ffcc4d"
     cx="4.1056814"
     cy="0.65313292"
     r="0.25648507"
     id="circle1827"
     style="stroke-width:0.160003" />
  <circle
     fill="#77b255"
     cx="4.1056814"
     cy="1.6889935"
     r="0.25648507"
     id="circle1829"
     style="stroke-width:0.160003" />
  <circle
     fill="#50a5e6"
     cx="3.5877507"
     cy="1.1710634"
     r="0.25648507"
     id="circle1831"
     style="stroke-width:0.160003" />
  <circle
     fill="#dd2e44"
     cx="4.6236115"
     cy="1.1710634"
     r="0.25648507"
     id="circle1833"
     style="stroke-width:0.160003" />
  <path
     d="M 1.771715,0.87409738 V 0.52721048 A 0.08080159,0.08080159 0 0 0 1.6909134,0.44640888 H 1.4416285 a 0.08080159,0.08080159 0 0 0 -0.080802,0.080802 v 0.3468865 L 1.5662705,1.0797014 Z M 1.3606669,1.4549088 v 0.3468869 c 0,0.044641 0.036161,0.080802 0.080802,0.080802 H 1.6907534 A 0.08080159,0.08080159 0 0 0 1.771555,1.8017957 V 1.4549088 L 1.5661109,1.2493048 Z M 2.2037235,0.95889898 H 1.8568367 L 1.6512326,1.1645031 1.8568367,1.3701071 h 0.3468868 a 0.0809616,0.0809616 0 0 0 0.080802,-0.080802 V 1.0398606 a 0.0809616,0.0809616 0 0 0 -0.080802,-0.0809616 z m -0.9278583,0 H 0.9288183 A 0.0809616,0.0809616 0 0 0 0.8480167,1.039701 v 0.2492849 c 0,0.044641 0.0361607,0.080802 0.0808016,0.080802 h 0.3468869 l 0.205604,-0.205604 z"
     fill="#8899a6"
     id="path1835"
     style="stroke-width:0.160003" />
</svg>
